<svg xmlns="http://www.w3.org/2000/svg" viewBox="0 0 40 28" fill="none">
  <!-- Bus side profile: light/bright blue for Baity Hill -->
  <path fill="#0ea5e9" d="M0 12h8v10H2a2 2 0 0 1-2-2v-6a2 2 0 0 1 2-2z" />
  <rect x="8" y="10" width="24" height="12" rx="1" fill="#38bdf8" />
  <path fill="#0ea5e9" d="M32 10h8a2 2 0 0 1 2 2v6a2 2 0 0 1-2 2h-8v-10z" />
  <!-- Windows -->
  <rect x="11" y="12" width="5" height="5" rx="0.5" fill="#7dd3fc" />
  <rect x="18" y="12" width="5" height="5" rx="0.5" fill="#7dd3fc" />
  <rect x="25" y="12" width="5" height="5" rx="0.5" fill="#7dd3fc" />
  <!-- Wheels -->
  <circle cx="10" cy="24" r="3" fill="#0369a1" />
  <circle cx="30" cy="24" r="3" fill="#0369a1" />
</svg>
