<svg xmlns="http://www.w3.org/2000/svg" viewBox="0 0 40 28" fill="none">
  <!-- Bus side profile: cab (front), body, rear. Dark/navy for Express -->
  <path fill="#1a365d" d="M0 12h8v10H2a2 2 0 0 1-2-2v-6a2 2 0 0 1 2-2z" />
  <rect x="8" y="10" width="24" height="12" rx="1" fill="#1e3a5f" />
  <path fill="#1a365d" d="M32 10h8a2 2 0 0 1 2 2v6a2 2 0 0 1-2 2h-8v-10z" />
  <!-- Windows -->
  <rect x="11" y="12" width="5" height="5" rx="0.5" fill="#5a7fa3" />
  <rect x="18" y="12" width="5" height="5" rx="0.5" fill="#5a7fa3" />
  <rect x="25" y="12" width="5" height="5" rx="0.5" fill="#5a7fa3" />
  <!-- Wheels -->
  <circle cx="10" cy="24" r="3" fill="#0f172a" />
  <circle cx="30" cy="24" r="3" fill="#0f172a" />
</svg>
